# xmcd
#
# Track frame offsets:
#	151
#	11520
#	23539
#	37071
#	47227
#	57974
#	69246
#	77385
#	87785
#	100220
#	111173
#	122713
#	135449
#	147915
#	155824
#	166305
#	176839
#	187424
#	197798
#	211479
#	223059
#	236678
#
# Disc length: 3336 seconds
#
# Revision: 0
# Processed by: cddbd v1.5.2PL0 Copyright (c) Steve Scherf et al.
# Submitted via: audiograbber 1.83.01
#
DISCID=3c0d0616
DTITLE=Various Artist - Rockers Volume 6
DYEAR=1900
DGENRE=
TTITLE0=Amos Milburn - Chicken Shack Boogie
TTITLE1=Willie Brown - Cadillac Boogie
TTITLE2=Cecil Payne - Block Buster Boogie (Inst)
TTITLE3=Big Bob Dougherty - Big Bob's Boogie (Inst)
TTITLE4=Goree Carter - I'm Your Boogie Man
TTITLE5=Jimmy Maddin - Boogie Boo
TTITLE6=George Jenkins - Shufflin Boogie (Inst)
TTITLE7=Louis Jordan - Choo Choo Boogie
TTITLE8=Amos Milburn - Roomin House Boogie
TTITLE9=Enchanters - Boogie Woogie Daddy
TTITLE10=Faye Thomas - I Wonder Who's Boogien My Woogie Now
TTITLE11=Lil Greenwood - Grandpa Can BoogieToo
TTITLE12=John Lee - Alabama Boogie
TTITLE13=Tnt Tribble - Red Hot Boogie
TTITLE14=Sylvester Mike - Fish House Boogie
TTITLE15=Clifford Bilvines - Hobo Boogie
TTITLE16=Piano Red - Jumpin The Boogie
TTITLE17=Platters - Beer Barrel Boogie
TTITLE18=Mr Swing - Beer Bottle Boogie
TTITLE19=Faye Thomas - Fayes Boogie (Inst)
TTITLE20=Mabel Scott - Googies Woogie
TTITLE21=Marcellos Thomas - Haller 89 Whiskey Boogie
EXTD=
EXTT0=
EXTT1=
EXTT2=
EXTT3=
EXTT4=
EXTT5=
EXTT6=
EXTT7=
EXTT8=
EXTT9=
EXTT10=
EXTT11=
EXTT12=
EXTT13=
EXTT14=
EXTT15=
EXTT16=
EXTT17=
EXTT18=
EXTT19=
EXTT20=
EXTT21=
PLAYORDER=
